<svg xmlns="http://www.w3.org/2000/svg" viewBox="0 0 512 512"><path d="M73.902 438.078c31.266 31.25 81.524 31.25 182.082 31.25 100.575 0 150.864 0 182.079-31.25 31.265-31.2 31.265-81.52 31.265-182.078 0-100.574 0-150.848-31.25-182.098-31.2-31.23-81.52-31.23-182.078-31.23-100.574 0-150.848 0-182.098 31.23-31.23 31.266-31.23 81.524-31.23 182.082 0 100.575 0 150.864 31.23 182.079Zm128.754-251.406c-38.285.008-69.316 31.05-69.312 69.34.008 38.285 31.047 69.32 69.332 69.316C240.965 325.324 272 294.285 272 256c0-8.836 7.164-16 16-16s16 7.164 16 16c-.008 55.957-45.375 101.316-101.332 101.313-55.961-.004-101.32-45.368-101.324-101.325-.004-55.957 45.355-101.324 101.312-101.332 8.836 0 16 7.164 16 16s-7.164 16-16 16Zm176 69.328c0 38.29-31.039 69.328-69.328 69.328-8.836 0-16 7.164-16 16s7.164 16 16 16c55.961 0 101.328-45.367 101.328-101.328 0-55.96-45.367-101.328-101.328-101.328C253.368 154.672 208 200.039 208 256c0 8.836 7.164 16 16 16s16-7.164 16-16c.809-37.707 31.61-67.855 69.328-67.855 37.719 0 68.52 30.148 69.328 67.855m0 0" style="stroke:none;fill-rule:evenodd;fill:#633cff;fill-opacity:1"/></svg>